HIERARCHY
ROOT Hips
{
  OFFSET 5.84602e-005 68.8428 3.50346
  CHANNELS 6 Xposition Yposition Zposition Zrotation Xrotation Yrotation
  JOINT Spine
  {
    OFFSET 0 8.597 -4.6522
    CHANNELS 3 Zrotation Xrotation Yrotation
    JOINT Spine1
    {
      OFFSET 0 7.8454 0.4098
      CHANNELS 3 Zrotation Xrotation Yrotation
      JOINT Spine2
      {
        OFFSET 0 9.7078 -2.1609
        CHANNELS 3 Zrotation Xrotation Yrotation
        JOINT Neck
        {
          OFFSET 0 21.8761 -0.4549
          CHANNELS 3 Zrotation Xrotation Yrotation
          JOINT Head
          {
            OFFSET 0 12.3537 3.3602
            CHANNELS 3 Zrotation Xrotation Yrotation
            End Site
            {
              OFFSET 0.0001 18.9506 0.5657
            }
          }
        }
        JOINT LeftShoulder
        {
          OFFSET 2.2086 21.1115 7.2329
          CHANNELS 3 Zrotation Xrotation Yrotation
          JOINT LeftArm
          {
            OFFSET 13.1193 3.0282 -4.8998
            CHANNELS 3 Zrotation Xrotation Yrotation
            JOINT LeftForeArm
            {
              OFFSET 27.4081 -0.0973053 -0.2375
              CHANNELS 3 Zrotation Xrotation Yrotation
              JOINT LeftHand
              {
                OFFSET 22.8641 0.0662994 -0.1369
                CHANNELS 3 Zrotation Xrotation Yrotation
                JOINT LeftHandIndex1
                {
                  OFFSET 8.8614 0.775009 2.4612
                  CHANNELS 3 Zrotation Xrotation Yrotation
                  JOINT LeftHandIndex2
                  {
                    OFFSET 3.3146 -0.808304 0.5841
                    CHANNELS 3 Zrotation Xrotation Yrotation
                    JOINT LeftHandIndex3
                    {
                      OFFSET 2.2628 -0.552002 0.3989
                      CHANNELS 3 Zrotation Xrotation Yrotation
                      End Site
                      {
                        OFFSET 1.6102 -0.4807 0.2612
                      }
                    }
                  }
                }
                JOINT LeftHandMiddle1
                {
                  OFFSET 8.9937 0.895004 0.2143
                  CHANNELS 3 Zrotation Xrotation Yrotation
                  JOINT LeftHandMiddle2
                  {
                    OFFSET 4.0984 0.0113983 -0.0242
                    CHANNELS 3 Zrotation Xrotation Yrotation
                    JOINT LeftHandMiddle3
                    {
                      OFFSET 2.2716 0.00689697 -0.0138001
                      CHANNELS 3 Zrotation Xrotation Yrotation
                      End Site
                      {
                        OFFSET 2.0404 -0.1441 0.0027
                      }
                    }
                  }
                }
                JOINT LeftHandRing1
                {
                  OFFSET 8.5234 0.597198 -2.0164
                  CHANNELS 3 Zrotation Xrotation Yrotation
                  JOINT LeftHandRing2
                  {
                    OFFSET 3.7188 -0.188293 -0.2328
                    CHANNELS 3 Zrotation Xrotation Yrotation
                    JOINT LeftHandRing3
                    {
                      OFFSET 2.1191 -0.106598 -0.1332
                      CHANNELS 3 Zrotation Xrotation Yrotation
                      End Site
                      {
                        OFFSET 1.8737 -0.2304 -0.0886
                      }
                    }
                  }
                }
                JOINT LeftHandPinky1
                {
                  OFFSET 7.9094 -0.601089 -3.4825
                  CHANNELS 3 Zrotation Xrotation Yrotation
                  JOINT LeftHandPinky2
                  {
                    OFFSET 2.2874 -0.477005 -0.6314
                    CHANNELS 3 Zrotation Xrotation Yrotation
                    JOINT LeftHandPinky3
                    {
                      OFFSET 1.6774 -0.349396 -0.4633
                      CHANNELS 3 Zrotation Xrotation Yrotation
                      End Site
                      {
                        OFFSET 1.4888 -0.4091 -0.3416
                      }
                    }
                  }
                }
                JOINT LeftHandThumb1
                {
                  OFFSET 1.833 -1.3875 1.3896
                  CHANNELS 3 Zrotation Xrotation Yrotation
                  JOINT LeftHandThumb2
                  {
                    OFFSET 3.4129 -1.121 2.5732
                    CHANNELS 3 Zrotation Xrotation Yrotation
                    JOINT LeftHandThumb3
                    {
                      OFFSET 2.2474 -0.804199 1.6192
                      CHANNELS 3 Zrotation Xrotation Yrotation
                      End Site
                      {
                        OFFSET 1.6527 -0.5689 1.1317
                      }
                    }
                  }
                }
              }
            }
          }
        }
        JOINT RightShoulder
        {
          OFFSET -2.2086 21.1115 7.2329
          CHANNELS 3 Zrotation Xrotation Yrotation
          JOINT RightArm
          {
            OFFSET -13.1216 3.0287 -4.9007
            CHANNELS 3 Zrotation Xrotation Yrotation
            JOINT RightForeArm
            {
              OFFSET -27.4081 -0.0973053 -0.2375
              CHANNELS 3 Zrotation Xrotation Yrotation
              JOINT RightHand
              {
                OFFSET -22.8641 0.0664063 -0.1369
                CHANNELS 3 Zrotation Xrotation Yrotation
                JOINT RightHandIndex1
                {
                  OFFSET -8.8614 0.774994 2.4612
                  CHANNELS 3 Zrotation Xrotation Yrotation
                  JOINT RightHandIndex2
                  {
                    OFFSET -3.3146 -0.808304 0.5841
                    CHANNELS 3 Zrotation Xrotation Yrotation
                    JOINT RightHandIndex3
                    {
                      OFFSET -2.2628 -0.552002 0.3989
                      CHANNELS 3 Zrotation Xrotation Yrotation
                      End Site
                      {
                        OFFSET -1.6102 -0.4807 0.2612
                      }
                    }
                  }
                }
                JOINT RightHandMiddle1
                {
                  OFFSET -8.9937 0.894989 0.2143
                  CHANNELS 3 Zrotation Xrotation Yrotation
                  JOINT RightHandMiddle2
                  {
                    OFFSET -4.0984 0.0113983 -0.0242
                    CHANNELS 3 Zrotation Xrotation Yrotation
                    JOINT RightHandMiddle3
                    {
                      OFFSET -2.2716 0.00691223 -0.0138001
                      CHANNELS 3 Zrotation Xrotation Yrotation
                      End Site
                      {
                        OFFSET -2.0404 -0.1441 0.0027
                      }
                    }
                  }
                }
                JOINT RightHandRing1
                {
                  OFFSET -8.5234 0.597198 -2.0164
                  CHANNELS 3 Zrotation Xrotation Yrotation
                  JOINT RightHandRing2
                  {
                    OFFSET -3.7188 -0.188309 -0.2328
                    CHANNELS 3 Zrotation Xrotation Yrotation
                    JOINT RightHandRing3
                    {
                      OFFSET -2.1191 -0.106598 -0.1332
                      CHANNELS 3 Zrotation Xrotation Yrotation
                      End Site
                      {
                        OFFSET -1.8737 -0.2304 -0.0886
                      }
                    }
                  }
                }
                JOINT RightHandPinky1
                {
                  OFFSET -7.9094 -0.601105 -3.4825
                  CHANNELS 3 Zrotation Xrotation Yrotation
                  JOINT RightHandPinky2
                  {
                    OFFSET -2.2874 -0.477005 -0.6314
                    CHANNELS 3 Zrotation Xrotation Yrotation
                    JOINT RightHandPinky3
                    {
                      OFFSET -1.6774 -0.349396 -0.4633
                      CHANNELS 3 Zrotation Xrotation Yrotation
                      End Site
                      {
                        OFFSET -1.4888 -0.4091 -0.3416
                      }
                    }
                  }
                }
                JOINT RightHandThumb1
                {
                  OFFSET -1.833 -1.38751 1.3896
                  CHANNELS 3 Zrotation Xrotation Yrotation
                  JOINT RightHandThumb2
                  {
                    OFFSET -3.41299 -1.12099 2.5732
                    CHANNELS 3 Zrotation Xrotation Yrotation
                    JOINT RightHandThumb3
                    {
                      OFFSET -2.24741 -0.804108 1.6192
                      CHANNELS 3 Zrotation Xrotation Yrotation
                      End Site
                      {
                        OFFSET -1.6527 -0.5689 1.1317
                      }
                    }
                  }
                }
              }
            }
          }
        }
      }
    }
  }
  JOINT RightUpLeg
  {
    OFFSET -9.1966 3.8861 -0.7581
    CHANNELS 3 Zrotation Xrotation Yrotation
    JOINT RightLeg
    {
      OFFSET -0.7359 -41.0265 0
      CHANNELS 3 Zrotation Xrotation Yrotation
      JOINT RightFoot
      {
        OFFSET 0 -40.2855 0
        CHANNELS 3 Zrotation Xrotation Yrotation
        JOINT RightToeBase
        {
          OFFSET 0 -5.6122 11.7359
          CHANNELS 3 Zrotation Xrotation Yrotation
          End Site
          {
            OFFSET 0 0 7.8731
          }
        }
      }
    }
  }
  JOINT LeftUpLeg
  {
    OFFSET 9.1965 3.8864 -0.7581
    CHANNELS 3 Zrotation Xrotation Yrotation
    JOINT LeftLeg
    {
      OFFSET 0.7359 -41.0268 0
      CHANNELS 3 Zrotation Xrotation Yrotation
      JOINT LeftFoot
      {
        OFFSET 0 -40.2855 0
        CHANNELS 3 Zrotation Xrotation Yrotation
        JOINT LeftToeBase
        {
          OFFSET 0 -5.6122 11.7359
          CHANNELS 3 Zrotation Xrotation Yrotation
          End Site
          {
            OFFSET 0 0 7.8731
          }
        }
      }
    }
  }
}
MOTION
Frames:	5
Frame Time:	0.0333333
5.84602e-005 68.8428 3.50346 0 0 -0 0 0 -0 0 0 -0 0 0 -0 0 0 -0 0 0 -0 0 0 -0 0 0 -0 0 0 -0 0 0 -0 0 0 -0 0 0 -0 0 0 -0 0 0 -0 -0.0146107 -8.87603e-005 -2.63497e-007 2.99804e-018 -2.42657e-020 -1.42182e-022 0 0 -0 -0.0187562 -0.001176 5.858e-005 5.06224e-018 3.88251e-019 1.21329e-020 0 0 -0 -0.012269 -0.00324817 0.000675346 -1.74678e-018 3.88251e-019 -0 0 0 -0 0 0 -0 0 0 -0 0 0 -0 0 0 -0 0 0 -0 0 0 -0 0 0 -0 0 0 -0 0 0 -0 0 0 -0 0.0149955 -9.10982e-005 2.64101e-007 -9.69331e-018 1.21329e-020 -4.7394e-023 0 0 -0 0.0189956 -0.00119102 -5.96516e-005 -5.41541e-019 0 2.42657e-020 0 0 -0 0.0122698 -0.00324857 -0.000673756 -2.00796e-019 0 -1.94126e-019 0 0 -0 0 0 -0 0 0 -0 3.39842 1.33031 -0.0637918 -5.65207e-008 0.834868 -0.000436188 -3.39935 -2.16518 -0.0642563 -8.89002e-024 -1.18485e-023 -1.48106e-024 -3.39844 1.35642 0.0640283 -3.18788e-007 0.782166 -0.000588827 3.39931 -2.13858 0.0634662 1.1399e-023 0 -0 
15.9543 9.17886 23.132 -0 -33.0001 -0 1.55037e-007 18.5993 -3.28151e-007 4.70906e-007 37.1986 -7.80682e-007 4.70906e-007 37.1986 -7.80682e-007 1.97148e-013 30.9997 -1.32267e-011 0.000414998 0.274518 -0.173106 -1.50183e-013 1.22877e-005 -7.8872e-014 -75.0163 0.00658683 -56.0017 -1.25295e-005 1.36677e-006 -38.0017 -15.0017 -5.34853e-007 1.72589e-006 -6.56684e-007 -9.25641e-007 -5.659e-007 0 6.36111e-015 -0 2.62417e-007 -5.12603e-007 -6.27e-007 -6.56684e-007 -9.25641e-007 -5.659e-007 -0.0146099 -8.7181e-005 -5.3014e-007 2.62425e-007 -5.12523e-007 -6.27065e-007 -6.56684e-007 -9.25641e-007 -5.659e-007 -0.0187738 -0.00117765 5.63041e-005 2.62421e-007 -5.125e-007 -6.27086e-007 -6.56684e-007 -9.25641e-007 -5.659e-007 -0.0122637 -0.00324864 0.000673693 2.62403e-007 -5.12536e-007 -6.27062e-007 -6.56684e-007 -9.25641e-007 -5.659e-007 0 6.36111e-015 -0 2.62417e-007 -5.12603e-007 -6.27e-007 2.93201e-007 5.08083e-006 1.9987 59.4574 5.46843 80.4434 4.71596 1.93136 10.9626 14.9984 16.9982 -0.00197648 3.18055e-015 -6.36111e-015 -6.36111e-015 1.11319e-014 -6.36111e-015 -1.59028e-015 7.95139e-015 0 -4.77083e-015 3.18055e-015 -6.36111e-015 -6.36111e-015 0.0150405 -9.02236e-005 -1.49258e-006 -1.76556e-031 3.18055e-015 3.18055e-015 3.18055e-015 -6.36111e-015 -6.36111e-015 0.0189553 -0.00119358 -5.87767e-005 -1.48137e-006 1.26871e-006 2.09352e-007 3.18055e-015 -6.36111e-015 -6.36111e-015 0.0122852 -0.00324871 -0.00067738 -3.18055e-015 3.18055e-015 1.59028e-015 3.18055e-015 -6.36111e-015 -6.36111e-015 1.11319e-014 -6.36111e-015 -1.59028e-015 7.95139e-015 0 -4.77083e-015 -48.1983 -10.4522 6.02248 179.943 41.7607 174.142 -2.10869 16.051 -3.63325 2.07964e-007 -6.73252e-007 6.97744e-006 42.3552 -22.0513 2.33539 -179.901 34.4117 -172.377 -2.12031 43.0944 6.41214 -2.79745e-006 2.60713e-006 2.96407e-006 
15.9594 9.17011 23.7581 -0 -33.0001 -0 1.55037e-007 18.5993 -3.28151e-007 4.70906e-007 37.1986 -7.80682e-007 4.70906e-007 37.1986 -7.80682e-007 -6.87487e-013 30.7592 -9.80629e-012 0.000414997 0.274503 -0.173106 -1.50183e-013 1.22877e-005 -7.8872e-014 -74.8073 -0.068279 -55.3834 7.46255e-006 3.94342e-006 -39.2119 -15.4876 -0.456393 -0.00729526 0 0 -0 2.64467e-007 -5.09002e-007 -6.2883e-007 7.95139e-015 -3.18055e-015 -3.18055e-015 0 0 -0 -0.014642 -8.84905e-005 -7.12719e-007 1.74931e-014 3.18055e-015 6.36111e-015 0 0 -0 -0.0187636 -0.00117763 5.64409e-005 -2.84959e-006 -2.19871e-006 -1.07722e-007 0 0 -0 -0.0123046 -0.0032562 0.000678763 1.59028e-015 -6.36111e-015 -0 0 0 -0 2.64467e-007 -5.09002e-007 -6.2883e-007 7.95139e-015 -3.18055e-015 -3.18055e-015 2.93202e-007 5.08083e-006 1.9987 59.5375 5.92273 79.6372 4.71595 1.93137 10.9626 14.9984 16.9983 -0.00196555 -3.18055e-015 6.36111e-015 -1.11319e-014 7.4985e-007 -2.18173e-006 9.25875e-007 -1.55208e-006 1.29904e-006 2.62916e-007 -3.18055e-015 6.36111e-015 -1.11319e-014 0.0149701 -8.8491e-005 2.33233e-006 -8.82781e-032 3.18055e-015 1.59028e-015 -3.18055e-015 6.36111e-015 -1.11319e-014 0.0189939 -0.00119098 -5.75707e-005 0 0 -9.54166e-015 -3.18055e-015 6.36111e-015 -1.11319e-014 0.0123031 -0.00325802 -0.000678949 -0 -9.54166e-015 -0 -3.18055e-015 6.36111e-015 -1.11319e-014 7.4985e-007 -2.18173e-006 9.25875e-007 -1.55208e-006 1.29904e-006 2.62916e-007 -48.3962 -9.68345 7.13865 179.946 43.2149 174.356 -2.16547 16.0571 -3.48165 3.16981e-006 -4.18885e-006 -1.80979e-006 43.0791 -21.1085 1.72795 -179.903 35.1552 -172.535 -1.99873 43.0941 6.25855 7.04518e-007 -9.28676e-007 1.78751e-006 
15.9645 9.16113 24.3838 -0 -33.0001 -0 1.55037e-007 18.5993 -3.28151e-007 4.70906e-007 37.1986 -7.80682e-007 4.70906e-007 37.1986 -7.80682e-007 -2.86951e-013 30.5184 -3.2994e-013 0.000415034 0.274523 -0.173106 -1.33822e-013 1.52454e-005 -1.9119e-013 -74.5972 -0.141054 -54.7637 2.16491e-006 -2.26736e-006 -40.4316 -15.9746 -0.913664 -0.0184901 -3.18055e-015 -9.54166e-015 9.54166e-015 3.18055e-015 -1.27222e-014 3.18055e-015 1.05934e-030 -6.36111e-015 9.54166e-015 -3.18055e-015 -9.54166e-015 9.54166e-015 -0.0146095 -8.86806e-005 1.90536e-006 -3.18055e-015 3.18055e-015 -9.54166e-015 -3.18055e-015 -9.54166e-015 9.54166e-015 -0.0187689 -0.00117568 5.78769e-005 -1.59028e-015 -3.18055e-015 3.18055e-015 -3.18055e-015 -9.54166e-015 9.54166e-015 -0.0122688 -0.00324339 0.000674779 -1.59028e-015 0 6.36111e-015 -3.18055e-015 -9.54166e-015 9.54166e-015 3.18055e-015 -1.27222e-014 3.18055e-015 1.05934e-030 -6.36111e-015 9.54166e-015 8.34374e-008 1.14512e-005 1.9987 59.6242 6.37616 78.829 4.71595 1.93136 10.9626 14.9983 16.9983 -0.00196356 -1.59028e-015 -6.36111e-015 7.95139e-016 -3.18055e-015 0 -1.59028e-015 -3.18055e-015 -3.18055e-015 -4.77083e-015 -1.59028e-015 -6.36111e-015 7.95139e-016 0.0149787 -9.14061e-005 6.1669e-006 3.18055e-015 -6.36111e-015 -0 -1.59028e-015 -6.36111e-015 7.95139e-016 0.0190078 -0.00119019 -5.86467e-005 -1.62664e-006 1.32965e-006 3.16122e-007 -1.59028e-015 -6.36111e-015 7.95139e-016 0.012234 -0.00323864 -0.000675299 -1.59028e-015 -1.90833e-014 -1.59028e-015 -1.59028e-015 -6.36111e-015 7.95139e-016 -3.18055e-015 0 -1.59028e-015 -3.18055e-015 -3.18055e-015 -4.77083e-015 -48.6022 -8.91647 8.23532 179.949 44.6737 174.557 -2.21802 16.0638 -3.33951 7.89209e-007 7.72843e-007 1.27879e-006 43.8045 -20.169 1.11847 -179.906 35.9001 -172.687 -1.88236 43.0941 6.11081 3.12996e-006 2.8531e-006 2.08896e-006 
15.9696 9.15191 25.0093 -0 -33.0001 -0 1.55037e-007 18.5993 -3.28151e-007 4.70906e-007 37.1986 -7.80682e-007 4.70906e-007 37.1986 -7.80682e-007 8.92708e-013 30.2784 -1.35526e-011 0.000415026 0.27452 -0.173106 -1.50183e-013 1.22877e-005 -7.88719e-014 -74.3859 -0.211688 -54.1423 -1.13201e-005 6.31682e-007 -41.6606 -16.4628 -1.37178 -0.033607 -4.77083e-015 0 6.36111e-015 3.18055e-015 6.36111e-015 -1.27222e-014 3.18055e-015 0 -6.36111e-015 -4.77083e-015 0 6.36111e-015 -0.0146338 -8.82304e-005 2.13877e-006 1.05934e-030 -9.54166e-015 6.36111e-015 -4.77083e-015 0 6.36111e-015 -0.0187603 -0.00117868 5.86485e-005 1.03228e-006 4.4972e-007 8.231e-008 -4.77083e-015 0 6.36111e-015 -0.0122281 -0.0032373 0.000673999 0 0 -0 -4.77083e-015 0 6.36111e-015 3.18055e-015 6.36111e-015 -1.27222e-014 3.18055e-015 0 -6.36111e-015 2.93202e-007 5.08083e-006 1.9987 59.7174 6.82857 78.019 4.71596 1.93136 10.9626 14.9984 16.9983 -0.00196536 7.83153e-007 8.78363e-007 -1.20099e-006 1.59028e-015 -3.18055e-015 3.97569e-015 3.26355e-006 3.96891e-007 -2.77171e-006 7.83153e-007 8.78363e-007 -1.20099e-006 0.0149492 -9.59916e-005 -2.08623e-006 1.56623e-006 1.75641e-006 -2.40221e-006 7.83153e-007 8.78363e-007 -1.20099e-006 0.0189496 -0.00118716 -6.30947e-005 3.26536e-006 3.96318e-007 -2.77182e-006 7.83153e-007 8.78363e-007 -1.20099e-006 0.0122636 -0.00324531 -0.000674473 1.56616e-006 1.75649e-006 -2.40221e-006 7.83153e-007 8.78363e-007 -1.20099e-006 1.59028e-015 -3.18055e-015 3.97569e-015 3.26355e-006 3.96891e-007 -2.77171e-006 -48.8164 -8.15152 9.31441 179.952 46.1362 174.746 -2.26678 16.0709 -3.20597 7.91698e-006 -5.44127e-006 -3.94539e-006 44.5316 -19.233 0.506699 -179.908 36.6464 -172.834 -1.77099 43.0943 5.96869 6.87374e-007 -9.54091e-007 1.78097e-006 
